<svg xmlns="http://www.w3.org/2000/svg" viewBox="0 0 1600 1000">
  <defs>
    <radialGradient id="bg" cx="72%" cy="34%" r="72%"><stop offset="0" stop-color="#25104f"/><stop offset="0.42" stop-color="#080812"/><stop offset="1" stop-color="#05050a"/></radialGradient>
    <linearGradient id="beam" x1="0" y1="0" x2="1" y2="1"><stop stop-color="#9b5cff" stop-opacity=".0"/><stop offset=".5" stop-color="#9b5cff" stop-opacity=".44"/><stop offset="1" stop-color="#ff6a3d" stop-opacity=".0"/></linearGradient>
    <filter id="blur"><feGaussianBlur stdDeviation="18"/></filter>
  </defs>
  <rect width="1600" height="1000" fill="url(#bg)"/>
  <path d="M760 150 L1370 610" stroke="url(#beam)" stroke-width="110" opacity=".32" filter="url(#blur)"/>
  <path d="M1030 40 L1270 910" stroke="#4b7dff" stroke-width="2" opacity=".35"/>
  <path d="M590 640 L1460 380" stroke="#ff6a3d" stroke-width="3" opacity=".22"/>
  <g opacity=".18" stroke="#f3eadc"><circle cx="1150" cy="390" r="250" fill="none"/><circle cx="1150" cy="390" r="160" fill="none"/><path d="M900 390h500M1150 140v500"/></g>
  <g transform="translate(930 220) rotate(7)">
    <rect x="0" y="0" width="440" height="270" fill="#f3eadc" opacity=".18" stroke="#f3eadc"/>
    <rect x="50" y="48" width="440" height="270" fill="#f3eadc" opacity=".28" stroke="#f3eadc"/>
    <rect x="110" y="105" width="380" height="230" fill="#05050a" opacity=".7" stroke="#f3eadc"/>
    <circle cx="300" cy="220" r="72" fill="#f3eadc" opacity=".72"/>
    <path d="M250 230c48 52 93 50 142-2" fill="none" stroke="#05050a" stroke-width="15" opacity=".68"/>
  </g>
  <g transform="translate(845 690) rotate(-10)" opacity=".58"><rect width="540" height="96" fill="#f3eadc" opacity=".11" stroke="#f3eadc"/><path d="M30 30h470M30 50h410M30 70h450" stroke="#f3eadc" opacity=".35"/></g>
  <g fill="#ff6a3d" opacity=".7"><circle cx="1250" cy="720" r="8"/><circle cx="1110" cy="790" r="5"/><circle cx="1390" cy="210" r="4"/></g>
</svg>
